<?xml version="1.0" encoding="UTF-8" standalone="no"?>
<!-- Created with Inkscape (http://www.inkscape.org/) -->

<svg
   xmlns:dc="http://purl.org/dc/elements/1.1/"
   xmlns:cc="http://creativecommons.org/ns#"
   xmlns:rdf="http://www.w3.org/1999/02/22-rdf-syntax-ns#"
   xmlns:svg="http://www.w3.org/2000/svg"
   xmlns="http://www.w3.org/2000/svg"
   xmlns:sodipodi="http://sodipodi.sourceforge.net/DTD/sodipodi-0.dtd"
   xmlns:inkscape="http://www.inkscape.org/namespaces/inkscape"
   version="1.1"
   id="svg3680"
   width="926.66669"
   height="924"
   viewBox="0 0 926.66669 924"
   sodipodi:docname="tekcel_ab.svg"
   inkscape:version="0.92.0 r15299">
  <metadata
     id="metadata3686">
    <rdf:RDF>
      <cc:Work
         rdf:about="">
        <dc:format>image/svg+xml</dc:format>
        <dc:type
           rdf:resource="http://purl.org/dc/dcmitype/StillImage" />
        <dc:title></dc:title>
      </cc:Work>
    </rdf:RDF>
  </metadata>
  <defs
     id="defs3684" />
  <sodipodi:namedview
     pagecolor="#ffffff"
     bordercolor="#666666"
     borderopacity="1"
     objecttolerance="10"
     gridtolerance="10"
     guidetolerance="10"
     inkscape:pageopacity="0"
     inkscape:pageshadow="2"
     inkscape:window-width="1920"
     inkscape:window-height="1013"
     id="namedview3682"
     showgrid="false"
     inkscape:zoom="0.62751901"
     inkscape:cx="650.48113"
     inkscape:cy="625.90769"
     inkscape:window-x="-9"
     inkscape:window-y="-9"
     inkscape:window-maximized="1"
     inkscape:current-layer="svg3680" />
  <g
     id="g3814">
    <path
       inkscape:connector-curvature="0"
       id="path3798"
       d="M 43.328202,474.1826 V 357.05467 H 460.84544 878.36267 V 474.1826 591.31052 H 460.84544 43.328202 Z"
       style="stroke-width:1.59357727;fill:#ffffff" />
    <g
       transform="translate(-26.024309,-627.147)"
       id="g3756">
      <g
         transform="translate(24.790244,629.89756)"
         id="g3794">
        <path
           style="fill:#b2e0ef;stroke-width:1.33333337"
           d="M 432.13779,920.92585 C 343.09138,914.91672 253.06527,880.46228 182.12795,825.24309 79.989704,745.7364 16.366382,629.09639 4.6438733,499.86327 2.6171269,477.51969 3.7464596,420.93388 6.6292413,400.38536 18.726235,314.15775 51.711881,237.23968 105.54864,169.71869 120.57242,150.87617 155.89236,115.55898 174.71383,100.55889 242.30632,46.689894 319.59535,13.557175 405.3805,1.6753348 427.02291,-1.3222908 481.87998,-2.4352735 504.93199,-0.34444317 646.06112,12.456049 772.75291,87.834693 850.16635,205.06189 c 60.43,91.5092 86.12567,198.81783 73.74997,307.99014 -9.05485,79.87753 -39.58792,157.18926 -87.55241,221.68846 -94.96127,127.69706 -245.23862,196.91436 -404.22612,186.18536 z m 135.8911,-360.47314 c 16.53717,-8.0909 26.2186,-22.69108 27.11685,-40.89395 l 0.50138,-10.15995 -5.13331,-0.88565 c -2.82332,-0.48712 -6.78331,-1.21281 -8.79997,-1.61267 l -3.66667,-0.72701 -0.0293,9.10593 c -0.0459,14.24883 -5.63786,23.66323 -17.95324,30.22499 -4.51046,2.40321 -7.54955,2.84373 -19.35082,2.80489 -11.72116,-0.0385 -14.89907,-0.51698 -19.5234,-2.93902 -6.95276,-3.64156 -14.24851,-12.07396 -16.26252,-18.79616 -1.06964,-3.57034 -1.54736,-22.76919 -1.54736,-62.18875 0,-39.41956 0.47772,-58.61841 1.54741,-62.18875 2.07206,-6.9159 9.16555,-14.95033 16.21046,-18.3607 7.8675,-3.80859 30.85496,-3.9733 38.9088,-0.27876 11.82915,5.42637 17.92443,15.56394 17.97072,29.88862 l 0.0293,9.06043 5,-0.81695 c 2.75,-0.44932 6.71076,-1.13753 8.8017,-1.52934 l 3.80168,-0.7124 -0.50308,-10.19775 C 594.24838,391.025 583.97873,375.60307 567.6425,367.9456 c -7.13657,-3.3452 -8.76308,-3.56024 -26.92867,-3.56024 -18.10204,0 -19.81056,0.22377 -26.82668,3.51356 -10.14458,4.75669 -17.21878,11.46245 -22.64118,21.46199 l -4.53214,8.35778 v 66.66667 66.66667 l 3.71339,7.04786 c 5.25829,9.98007 12.04237,16.977 20.4478,21.0894 10.61424,5.19307 14.09029,5.77251 32.55984,5.42759 15.39491,-0.28751 17.3454,-0.61776 24.59403,-4.16417 z m -444.32445,-87.73402 0.34272,-89.66666 23,-0.36482 23,-0.36482 v -7.96851 -7.96852 H 114.71382 59.380489 v 7.96924 7.96923 l 23.666668,0.3641 23.666663,0.3641 0.34272,89.66666 0.34272,89.66667 h 7.98123 7.98123 z m 185.00939,81.66667 v -8 h -46 -46 v -36.66667 -36.66666 h 37.33333 37.33334 v -8.66667 -8.66667 h -37.33334 -37.33333 v -36 -36 h 46 46 v -8.66666 -8.66667 h -54.66667 -54.66667 v 98 98 h 54.66667 54.66667 z m 52,-90 v -98 h -8.66667 -8.66666 v 98 98 h 8.66666 8.66667 z m 384.00001,90 v -8 h -46 -46 v -36.66667 -36.66666 h 37.33333 37.33334 v -8.66667 -8.66667 h -37.33334 -37.33333 v -36 -36 h 21.78625 c 11.98244,0 32.68244,-0.39468 46,-0.87708 l 24.21375,-0.87706 v -7.7896 -7.78959 H 690.04717 635.3805 v 98 98 h 54.66667 54.66667 z m 124,0.0208 v -7.97923 l -37.66666,-0.3541 -37.66667,-0.35414 -0.34272,-89.66666 -0.34272,-89.66667 h -7.99062 -7.99061 v 98 98 h 46 46 v -7.97924 z"
           id="path3778"
           inkscape:connector-curvature="0" />
        <path
           style="fill:#a6dcee;stroke-width:1.33333337"
           d="M 433.3805,921.04257 C 400.77611,918.45744 364.66764,911.89269 334.04716,902.98315 226.46792,871.68113 129.4919,797.07429 70.70502,700.38536 36.666386,644.40077 15.489036,583.66307 6.4948378,516.22733 3.5773869,494.35319 3.1671074,430.03651 5.8111609,409.05203 13.433361,348.5586 29.277065,296.66376 55.31944,246.89144 110.73068,140.98924 202.79895,61.883342 316.04716,22.871833 366.136,5.6173336 407.87935,-0.98961862 466.04717,-0.86950367 517.13673,-0.76400513 548.51979,3.4888615 593.5231,16.405361 697.30236,46.191277 789.17837,113.81583 849.84782,205.07095 c 54.91497,82.59962 80.78441,176.96796 76.07936,277.52745 -5.39568,115.31975 -52.57982,221.90089 -134.50627,303.82736 -74.03903,74.03901 -169.78135,120.46173 -273.37374,132.55111 -22.13602,2.58329 -64.96076,3.62814 -84.66667,2.0657 z M 569.71662,559.86113 c 16.01348,-8.67694 25.26386,-22.80082 26.61251,-40.63313 0.83491,-11.03932 1.56364,-10.28341 -11.76533,-12.2042 l -6.15004,-0.88625 -0.63918,9.79057 c -0.97649,14.95725 -7.46308,25.01085 -19.35125,29.99263 -5.80285,2.43169 -29.71936,2.4026 -35.41899,-0.0431 -5.37021,-2.30435 -12.37928,-9.20157 -15.66385,-15.41389 -2.35104,-4.4467 -2.5088,-8.60164 -2.5088,-66.07839 0,-67.7826 -0.27718,-65.42273 8.75601,-74.54953 6.53532,-6.60307 13.03012,-8.72186 26.83563,-8.75452 24.24055,-0.0573 35.92248,9.87626 37.35125,31.76129 l 0.63918,9.79057 6.15004,-0.88625 c 13.35109,-1.92397 12.60261,-1.13344 11.74977,-12.41 -1.44272,-19.07604 -14.15931,-36.56117 -31.23731,-42.95088 -6.72824,-2.51736 -9.83588,-2.80388 -26.32888,-2.42747 -17.35813,0.39616 -19.24943,0.69648 -26.35279,4.18463 -9.75,4.78779 -18.47282,13.5106 -23.25817,23.25817 l -3.75592,7.65062 -0.39569,61.77758 c -0.34632,54.06675 -0.12307,62.71538 1.78846,69.2909 4.4315,15.24376 15.316,26.86173 30.26952,32.30929 5.84452,2.12915 10.09538,2.50172 25.67104,2.24999 18.43425,-0.29795 18.77047,-0.35795 27.00279,-4.81866 z m -445.0028,-86.77762 v -89.30184 l 23,-0.36483 23.00001,-0.36481 0.39696,-8.33334 0.39694,-8.33333 H 115.44411 59.380489 v 8.66667 8.66666 h 23.333334 23.333337 v 89.33334 89.33333 h 9.33333 9.33333 z m 184.00001,80.63518 v -8.66666 h -46 -46 v -36 -36 h 38 38 v -8.66667 -8.66667 h -38 -38 v -36 -36 h 46.66666 46.66667 v -8.66666 -8.66667 h -55.33333 -55.33334 v 98 98 h 54.66667 54.66667 z m 52.00607,-74.33333 c 0.003,-45.65 0.395,-89.75 0.87038,-98 l 0.86432,-15 h -10.20372 -10.20372 v 85.79517 c 0,47.18734 0.38984,91.28734 0.86632,98 l 0.86634,12.20483 h 8.467 8.46701 l 0.007,-83 z m 385.05757,74.66667 -0.39696,-8.33334 -46.33334,-0.35061 -46.33333,-0.35061 v -35.98272 -35.98272 h 37.33333 37.33334 v -8.66667 -8.66667 h -37.33334 -37.33333 v -35.98272 -35.98272 l 46.33333,-0.35061 46.33334,-0.35061 0.39696,-8.33334 0.39694,-8.33333 H 690.1108 634.04717 v 39.78123 c 0,21.87968 0.39775,65.97968 0.88387,98 l 0.88388,58.21877 h 55.17975 55.17974 z m 122.93637,-0.33334 v -8.66666 h -37.33333 -37.33334 v -89.33334 -89.33333 h -9.33333 -9.33333 v 98 98 h 46.66667 46.66666 z M 341.38551,327.38536 c -0.31789,-0.91667 -5.11492,-21.43252 -10.66007,-45.59079 -5.54514,-24.15828 -10.21622,-44.02936 -10.38018,-44.15797 -0.35603,-0.27928 -137.64653,88.97164 -139.08178,90.41543 -0.54676,0.55 35.38707,1 79.85295,1 64.09699,0 80.72729,-0.34531 80.26908,-1.66667 z"
           id="path3776"
           inkscape:connector-curvature="0" />
        <path
           style="fill:#8fd6ee;stroke-width:1.33333337"
           d="M 433.3805,921.04257 C 400.77611,918.45744 364.66764,911.89269 334.04716,902.98315 226.46792,871.68113 129.4919,797.07429 70.70502,700.38536 36.666386,644.40077 15.489036,583.66307 6.4948378,516.22733 3.5773869,494.35319 3.1671074,430.03651 5.8111609,409.05203 13.433361,348.5586 29.277065,296.66376 55.31944,246.89144 110.73068,140.98924 202.79895,61.883342 316.04716,22.871833 366.136,5.6173336 407.87935,-0.98961862 466.04717,-0.86950367 517.13673,-0.76400513 548.51979,3.4888615 593.5231,16.405361 697.30236,46.191277 789.17837,113.81583 849.84782,205.07095 c 54.91497,82.59962 80.78441,176.96796 76.07936,277.52745 -5.39568,115.31975 -52.57982,221.90089 -134.50627,303.82736 -74.03903,74.03901 -169.78135,120.46173 -273.37374,132.55111 -22.13602,2.58329 -64.96076,3.62814 -84.66667,2.0657 z M 568.71384,560.61988 c 16.32773,-8.32793 26.23978,-23.20457 27.61997,-41.45377 0.83053,-10.98159 1.58147,-10.21706 -11.95331,-12.16979 l -6.33333,-0.91375 v 6.57606 c 0,14.59045 -6.81424,26.97846 -17.75268,32.27368 -8.04005,3.89212 -30.60228,4.03269 -37.96711,0.23656 -6.4432,-3.3211 -12.95381,-10.19246 -15.54597,-16.40735 -3.15983,-7.57595 -3.08423,-121.11464 0.0859,-129.03764 2.65326,-6.63113 11.91763,-15.00517 18.9223,-17.10383 6.35109,-1.90284 23.24409,-2.05493 29.48363,-0.26545 13.32958,3.82288 21.22177,14.41851 22.40637,30.08161 l 0.76721,10.14442 6.80018,-0.86075 c 12.42997,-1.57335 11.92582,-1.02145 11.08529,-12.13529 -1.31588,-17.39886 -11.22427,-32.79202 -26.58637,-41.30319 -6.97474,-3.86429 -7.21132,-3.89604 -29.03205,-3.89604 h -22 l -8.43468,4.57312 c -9.7724,5.2984 -16.45664,12.40812 -21.39813,22.76021 l -3.50052,7.33334 -0.38364,62.48573 c -0.42964,69.97887 -0.36301,70.62003 8.66739,83.39197 5.97394,8.44914 12.99322,13.76566 23.04958,17.45818 6.28684,2.30842 9.99712,2.64128 26,2.3325 17.45431,-0.33678 19.14295,-0.6031 26.00001,-4.10053 z M 124.71382,473.08351 v -89.30184 l 23,-0.36483 23.00001,-0.36481 0.39696,-8.33334 0.39694,-8.33333 H 115.44411 59.380489 v 8.66667 8.66666 h 23.333334 23.333337 v 89.33334 89.33333 h 9.33333 9.33333 z m 184.00001,80.63518 v -8.66666 h -46 -46 v -36 -36 h 38 38 v -8.66667 -8.66667 h -38 -38 v -36 -36 h 46.66666 46.66667 v -8.66666 -8.66667 h -55.33333 -55.33334 v 98 98 h 54.66667 54.66667 z m 53.33333,-89.33333 v -98 h -10 -10 v 85.79517 c 0,47.18734 0.38984,91.28734 0.86632,98 l 0.86634,12.20483 h 9.13366 9.13368 z m 383.73031,89.66667 -0.39696,-8.33334 -46.33334,-0.35061 -46.33333,-0.35061 v -35.98272 -35.98272 h 37.33333 37.33334 v -8.66667 -8.66667 h -37.33334 -37.33333 v -35.98272 -35.98272 l 46.33333,-0.35061 46.33334,-0.35061 0.39696,-8.33334 0.39694,-8.33333 H 690.1108 634.04717 v 39.78123 c 0,21.87968 0.39775,65.97968 0.88387,98 l 0.88388,58.21877 h 55.17975 55.17974 z m 122.93637,-0.33334 v -8.66666 h -37.33333 -37.33334 v -89.33334 -89.33333 h -9.33333 -9.33333 v 98 98 h 46.66667 46.66666 z M 459.55058,369.38536 c 1.65849,-2.11475 1.61133,-2.16191 -0.50341,-0.50341 -2.221,1.74182 -2.92731,2.83674 -1.82992,2.83674 0.27686,0 1.32686,-1.05 2.33333,-2.33333 z m 128.48978,-42 c 2.73236,-11.53453 20.67348,-89.55209 20.67348,-89.89932 0,-0.23871 -64.95001,-0.42345 -144.33334,-0.41055 l -144.33334,0.0235 -70.2768,45.69777 c -38.65225,25.13379 -70.70225,46.12322 -71.22223,46.6432 -0.51998,0.51999 91.24315,0.94543 203.91807,0.94543 h 204.8635 z"
           id="path3774"
           inkscape:connector-curvature="0" />
        <path
           style="fill:#85c6dc;stroke-width:1.33333337"
           d="M 433.3805,921.04257 C 400.77611,918.45744 364.66764,911.89269 334.04716,902.98315 226.46792,871.68113 129.4919,797.07429 70.70502,700.38536 36.666386,644.40077 15.489036,583.66307 6.4948378,516.22733 3.5773869,494.35319 3.1671074,430.03651 5.8111609,409.05203 13.433361,348.5586 29.277065,296.66376 55.31944,246.89144 110.73068,140.98924 202.79895,61.883342 316.04716,22.871833 366.136,5.6173336 407.87935,-0.98961862 466.04717,-0.86950367 517.13673,-0.76400513 548.51979,3.4888615 593.5231,16.405361 697.30236,46.191277 789.17837,113.81583 849.84782,205.07095 c 54.91497,82.59962 80.78441,176.96796 76.07936,277.52745 -5.39568,115.31975 -52.57982,221.90089 -134.50627,303.82736 -74.03903,74.03901 -169.78135,120.46173 -273.37374,132.55111 -22.13602,2.58329 -64.96076,3.62814 -84.66667,2.0657 z m 55.06212,-288.87126 c 12.60685,-38.61774 23.15905,-70.45158 23.44933,-70.74186 0.2903,-0.29028 3.56494,0.46562 7.277,1.67978 5.29423,1.73165 10.57164,2.10257 24.48038,1.7206 16.26836,-0.44679 18.33617,-0.79482 25.06451,-4.21863 16.31713,-8.30321 26.23952,-23.19223 27.61997,-41.44509 0.83053,-10.98159 1.58147,-10.21706 -11.95331,-12.16979 l -6.33333,-0.91375 v 6.57606 c 0,14.59045 -6.81424,26.97846 -17.75268,32.27368 -10.03465,4.85768 -35.62644,3.66186 -42.05128,-1.96492 -0.97007,-0.84958 49.6488,-153.75662 50.68759,-153.11462 0.5966,0.36874 2.63653,3.31835 4.53317,6.55472 2.56119,4.37034 3.64583,8.49438 4.21565,16.02872 l 0.76722,10.14442 6.80017,-0.86075 c 12.45147,-1.57607 11.92801,-0.99251 11.06972,-12.34109 -0.9798,-12.95526 -6.32879,-24.18956 -15.68371,-32.94 l -6.77074,-6.33323 7.44582,-22.19344 c 5.8746,-17.51012 27.40574,-103.74191 27.40574,-109.75941 0,-0.60538 -64.95685,-1.10068 -144.34854,-1.10068 H 320.01676 l -71.29732,46.33333 -71.29732,46.33333 82.52759,0.66667 82.52757,0.66667 5.13367,15.33333 c 2.82351,8.43333 5.46716,16.38333 5.87479,17.66667 0.63201,1.98982 -0.15543,2.33333 -5.34872,2.33333 h -6.08986 v 85.79517 c 0,47.18734 0.38984,91.28734 0.86632,98 l 0.86634,12.20483 h 9.13366 9.13368 l 0.0287,-85.66667 0.0287,-85.66666 8.11902,24.66666 c 4.46546,13.56667 8.56203,25.14618 9.10351,25.73224 0.54147,0.58606 13.81683,-16.06394 29.50081,-37 l 28.51646,-38.06557 h 11.75453 11.75452 l -27.01964,35.66667 c -14.86081,19.61666 -31.44824,41.48329 -36.86097,48.59249 -6.39651,8.40133 -9.47848,13.53517 -8.80476,14.66667 0.5701,0.95746 15.80401,20.94084 33.85313,44.4075 18.04911,23.46667 34.50992,44.91667 36.57956,47.66667 l 3.763,5 -12.49158,-0.007 -12.49159,-0.007 -16.53629,-21.66054 c -9.09497,-11.91222 -16.25101,-20.75946 -15.90234,-19.65946 13.30387,41.97094 59.27698,181.33333 59.81856,181.33333 0.41836,0 11.07535,-31.59632 23.68219,-70.21405 z m -363.7288,-159.0878 v -89.30184 l 23,-0.36483 23.00001,-0.36481 0.39696,-8.33334 0.39694,-8.33333 H 115.44411 59.380489 v 8.66667 8.66666 h 23.333334 23.333337 v 89.33334 89.33333 h 9.33333 9.33333 z m 184.00001,80.63518 v -8.66666 h -46 -46 v -36 -36 h 38 38 v -8.66667 -8.66667 h -38 -38 v -36 -36 h 46.66666 46.66667 v -8.66666 -8.66667 h -55.33333 -55.33334 v 98 98 h 54.66667 54.66667 z m 437.06364,0.33334 -0.39696,-8.33334 -46.33334,-0.35061 -46.33333,-0.35061 v -35.98272 -35.98272 h 37.33333 37.33334 v -8.66667 -8.66667 h -37.33334 -37.33333 v -35.98272 -35.98272 l 46.33333,-0.35061 46.33334,-0.35061 0.39696,-8.33334 0.39694,-8.33333 H 690.1108 634.04717 v 39.78123 c 0,21.87968 0.39775,65.97968 0.88387,98 l 0.88388,58.21877 h 55.17975 55.17974 z m 122.93637,-0.33334 v -8.66666 h -37.33333 -37.33334 v -89.33334 -89.33333 h -9.33333 -9.33333 v 98 98 h 46.66667 46.66666 z"
           id="path3772"
           inkscape:connector-curvature="0" />
        <path
           style="fill:#7ab7cb;stroke-width:1.33333337"
           d="M 433.3805,921.04257 C 400.77611,918.45744 364.66764,911.89269 334.04716,902.98315 226.46792,871.68113 129.4919,797.07429 70.70502,700.38536 36.666386,644.40077 15.489036,583.66307 6.4948378,516.22733 3.5773869,494.35319 3.1671074,430.03651 5.8111609,409.05203 13.433361,348.5586 29.277065,296.66376 55.31944,246.89144 110.73068,140.98924 202.79895,61.883342 316.04716,22.871833 366.136,5.6173336 407.87935,-0.98961862 466.04717,-0.86950367 517.13673,-0.76400513 548.51979,3.4888615 593.5231,16.405361 697.30236,46.191277 789.17837,113.81583 849.84782,205.07095 c 54.91497,82.59962 80.78441,176.96796 76.07936,277.52745 -5.39568,115.31975 -52.57982,221.90089 -134.50627,303.82736 -74.03903,74.03901 -169.78135,120.46173 -273.37374,132.55111 -22.13602,2.58329 -64.96076,3.62814 -84.66667,2.0657 z m 55.2692,-288.32388 c 12.71859,-39.05 23.21408,-71.128 23.32331,-71.28444 0.1092,-0.15644 3.11594,0.59356 6.68161,1.66667 10.21063,3.07295 37.43108,2.6544 46.34254,-0.71256 13.94042,-5.26705 24.61506,-16.46989 29.03982,-30.47679 3.12144,-9.88116 3.59148,-22.22326 0.88588,-23.2615 -0.98502,-0.37799 -5.18502,-1.11132 -9.33333,-1.62962 l -7.54236,-0.94236 v 5.42135 c 0,15.77811 -5.98524,26.9812 -17.47301,32.7058 -6.09463,3.03708 -8.72883,3.51345 -19.42847,3.51345 -12.77774,0 -23.79844,-2.83494 -22.70908,-5.84165 0.29725,-0.82043 11.54914,-35.25237 25.00421,-76.51544 13.57106,-41.61877 25.07739,-74.81923 25.84188,-74.5644 3.16823,1.05608 7.56886,12.71361 8.35955,22.14493 l 0.81317,9.69948 7.33823,-0.91685 c 11.71185,-1.46329 11.36679,-1.04976 10.57045,-12.66785 -0.9006,-13.13948 -5.36478,-22.78959 -14.86108,-32.12482 l -7.1158,-6.99509 6.63363,-19.44248 c 3.80657,-11.15669 11.31144,-39.47247 17.61004,-66.44249 l 10.97641,-47 H 464.69081 319.77432 l -69.86357,45.36678 c -38.42498,24.95174 -70.41235,46.17536 -71.08306,47.16363 -0.87552,1.29004 2.59963,6.73363 12.3209,19.29988 10.69886,13.82997 12.98336,17.50304 10.88613,17.50304 -2.626,0 -2.65423,1.04203 -2.65423,98 v 98 h 54.66667 54.66667 v -8.66667 -8.66666 h -46 -46 v -36 -36 l 35,0.007 35,0.007 28.33333,36.86048 28.33334,36.86047 v 7.72674 7.72675 l 6.2583,0.40639 6.2583,0.40638 54.07504,70.32422 c 29.74127,38.67832 54.40753,70.32832 54.81395,70.33333 0.4064,0.005 11.14502,-31.94088 23.86361,-70.99088 z m -67.61476,-92.05956 c -8.99006,-11.8839 -25.63636,-33.78682 -36.99178,-48.67316 l -20.64621,-27.06605 36.99177,-49.19236 36.99178,-49.19236 11.87332,-0.0749 c 11.19071,-0.0707 11.75735,0.0592 9.85612,2.25841 -4.90957,5.67901 -70.58242,92.60075 -71.22114,94.26521 -0.41885,1.09154 14.01207,20.94478 35.05655,48.22879 19.67267,25.50545 36.55251,47.45336 37.51075,48.77311 1.64417,2.26445 1.04356,2.3962 -10.66667,2.34 l -12.40893,-0.0595 z M 216.71383,419.71869 c 0,-19.8 0.26838,-36 0.59642,-36 0.55951,0 52.34535,66.79703 54.54455,70.35543 0.79355,1.28399 -5.14007,1.64457 -27.06228,1.64457 h -28.07869 z m -92.00001,53.36482 v -89.30184 l 23,-0.36483 23.00001,-0.36481 0.39696,-8.33334 0.39694,-8.33333 H 115.44411 59.380489 v 8.66667 8.66666 h 23.333334 23.333337 v 89.33334 89.33333 h 9.33333 9.33333 z m 621.06365,80.96852 -0.39696,-8.33334 -46.33334,-0.35061 -46.33333,-0.35061 v -35.98272 -35.98272 h 37.33333 37.33334 v -8.66667 -8.66667 H 690.71384 654.04717 V 419.7362 383.75371 l 45.66667,-0.35084 45.66667,-0.35084 0.39696,-8.33334 0.39694,-8.33333 H 690.1108 634.04717 v 39.78123 c 0,21.87968 0.39775,65.97968 0.88387,98 l 0.88388,58.21877 h 55.17975 55.17974 z m 122.93637,-0.33334 v -8.66666 h -37.33333 -37.33334 v -89.33334 -89.33333 h -9.33333 -9.33333 v 98 98 h 46.66667 46.66666 z"
           id="path3770"
           inkscape:connector-curvature="0" />
        <path
           style="fill:#9da9b0;stroke-width:1.33333337"
           d="M 433.3805,921.04257 C 400.77611,918.45744 364.66764,911.89269 334.04716,902.98315 226.46792,871.68113 129.4919,797.07429 70.70502,700.38536 36.666386,644.40077 15.489036,583.66307 6.4948378,516.22733 3.5773869,494.35319 3.1671074,430.03651 5.8111609,409.05203 13.433361,348.5586 29.277065,296.66376 55.31944,246.89144 110.73068,140.98924 202.79895,61.883342 316.04716,22.871833 366.136,5.6173336 407.87935,-0.98961862 466.04717,-0.86950367 517.13673,-0.76400513 548.51979,3.4888615 593.5231,16.405361 697.30236,46.191277 789.17837,113.81583 849.84782,205.07095 c 54.91497,82.59962 80.78441,176.96796 76.07936,277.52745 -5.39568,115.31975 -52.57982,221.90089 -134.50627,303.82736 -74.03903,74.03901 -169.78135,120.46173 -273.37374,132.55111 -22.13602,2.58329 -64.96076,3.62814 -84.66667,2.0657 z m 49.13132,-268.32388 c 9.16419,-28.05 19.47972,-59.7 22.92341,-70.33333 3.4437,-10.63333 6.50083,-19.74328 6.79362,-20.24433 0.2928,-0.50106 3.2213,0.005 6.5078,1.12504 4.58282,1.56153 10.40368,1.92154 24.9763,1.54476 17.70146,-0.4577 19.48758,-0.74538 26.11755,-4.20663 16.08063,-8.39508 25.57455,-23.02487 26.61594,-41.01425 0.32417,-5.59984 0.0669,-10.50067 -0.5716,-10.89071 -0.63855,-0.39004 -5.211,-1.14012 -10.161,-1.66685 l -9,-0.95768 -0.0293,9.15532 c -0.0461,14.433 -6.8629,25.38893 -18.92789,30.42109 -7.06517,2.94679 -28.07359,2.76427 -34.61399,-0.30072 l -4.90444,-2.29837 25.03029,-76.33432 c 23.34053,-71.18111 25.17587,-76.17344 27.18698,-73.9512 3.9722,4.38924 6.25839,12.08414 6.25839,21.06469 v 8.86481 l 9,-0.95768 c 4.95,-0.52673 9.52245,-1.27681 10.161,-1.66685 0.63854,-0.39004 0.89577,-5.29087 0.5716,-10.89071 -0.76792,-13.26521 -5.26502,-23.2317 -14.574,-32.29894 l -6.96463,-6.78375 6.51657,-19.84637 6.51658,-19.84636 82.34476,-0.34334 82.34475,-0.34332 -72.29165,-46.98972 -72.29165,-46.98973 -143.33334,0.012 -143.33333,0.012 -72.00001,46.79697 c -39.6,25.73834 -72.2089,46.98735 -72.46424,47.22004 -0.25533,0.23268 5.59467,8.22935 13,17.77038 7.40534,9.54042 13.46424,17.68152 13.46424,18.09072 0,0.40921 -0.9,0.74401 -2,0.74401 -1.75964,0 -2,11.77777 -2,98 v 98 h 54.66667 54.66667 v -8.66667 -8.66666 h -46 -46 v -36 -36 l 35,0.0391 35,0.0391 28,36.54948 28,36.54948 0.39696,8.07817 0.39695,8.07816 h 5.84577 5.84577 l 54.33176,70.66667 c 29.88246,38.86667 54.77879,70.66667 55.32519,70.66667 0.54639,0 8.4914,-22.95 17.65559,-51 z m -48.80901,-96 c -18.2179,-22.82493 -68.18987,-90.02481 -68.24903,-91.77798 -0.0403,-1.19419 16.12672,-23.82788 35.92672,-50.2971 l 36,-48.12584 11.77871,-0.0663 11.7787,-0.0661 -3.91212,5 c -12.19573,15.58712 -69.76884,91.38028 -70.01685,92.17495 -0.24667,0.79036 56.0432,74.86588 70.79091,93.15839 l 4.56854,5.66666 H 450.29705 438.2257 l -4.52289,-5.66666 z M 216.71383,419.43297 c 0,-30.99081 0.26988,-36.00081 1.84946,-34.33333 1.01722,1.07381 13.10854,16.65239 26.8696,34.61905 13.76108,17.96667 25.6023,33.41667 26.3138,34.33334 1.02579,1.32156 -4.53793,1.66666 -26.86961,1.66666 h -28.16325 z m -92.00001,53.65054 v -89.30184 l 23,-0.36483 23.00001,-0.36481 0.39696,-8.33334 0.39694,-8.33333 H 115.44411 59.380489 v 8.66667 8.66666 h 23.333334 23.333337 v 89.33334 89.33333 h 9.33333 9.33333 z m 621.06365,80.96852 -0.39696,-8.33334 -46.33334,-0.35061 -46.33333,-0.35061 v -35.98272 -35.98272 h 37.33333 37.33334 v -8.66667 -8.66667 H 690.71384 654.04717 V 419.7362 383.75371 l 45.66667,-0.35084 45.66667,-0.35084 0.39696,-8.33334 0.39694,-8.33333 H 690.1108 634.04717 v 39.78123 c 0,21.87968 0.39775,65.97968 0.88387,98 l 0.88388,58.21877 h 55.17975 55.17974 z m 122.93637,-0.33334 v -8.66666 h -37.33333 -37.33334 v -89.33334 -89.33333 h -9.33333 -9.33333 v 98 98 h 46.66667 46.66666 z"
           id="path3768"
           inkscape:connector-curvature="0" />
        <path
           style="fill:#6b9fb1;stroke-width:1.33333337"
           d="M 440.71383,920.98468 C 331.3661,915.58107 223.91388,868.70908 144.17173,791.62933 65.964547,716.03331 18.573574,618.55355 5.8210088,507.05203 3.6456809,488.03213 3.6618607,431.19719 5.8479584,412.38536 21.675395,276.18699 88.920009,161.48867 199.04412,82.853037 260.20605,39.179517 332.37338,11.63394 412.04716,1.5518136 434.74767,-1.3207677 489.89795,-1.7249986 512.04717,0.81885097 619.14692,13.119318 710.98284,56.059274 786.68108,129.23013 c 74.0928,71.61902 121.69155,166.69642 136.08262,271.8219 2.94137,21.48648 4.03822,73.88394 2.04222,97.55898 -6.93472,82.25447 -36.37096,162.9412 -83.42541,228.67467 -92.84955,129.70764 -241.4869,201.56515 -400.66668,193.699 z m 41.79799,-268.26599 c 9.16419,-28.05 19.47972,-59.7 22.92341,-70.33333 3.4437,-10.63333 6.50083,-19.74328 6.79362,-20.24433 0.2928,-0.50106 3.2213,0.005 6.5078,1.12504 4.58282,1.56153 10.40368,1.92154 24.9763,1.54476 17.70146,-0.4577 19.48758,-0.74538 26.11755,-4.20663 16.08063,-8.39508 25.57455,-23.02487 26.61594,-41.01425 0.32417,-5.59984 0.0669,-10.50067 -0.5716,-10.89071 -0.63855,-0.39004 -5.211,-1.14012 -10.161,-1.66685 l -9,-0.95768 -0.0293,9.15532 c -0.0461,14.433 -6.8629,25.38893 -18.92789,30.42109 -7.06517,2.94679 -28.07359,2.76427 -34.61399,-0.30072 l -4.90444,-2.29837 25.03029,-76.33432 c 23.34053,-71.18111 25.17587,-76.17344 27.18698,-73.9512 3.9722,4.38924 6.25839,12.08414 6.25839,21.06469 v 8.86481 l 9,-0.95768 c 4.95,-0.52673 9.52245,-1.27681 10.161,-1.66685 0.63854,-0.39004 0.89577,-5.29087 0.5716,-10.89071 -0.76792,-13.26521 -5.26502,-23.2317 -14.574,-32.29894 l -6.96463,-6.78375 6.51657,-19.84637 6.51658,-19.84636 82.34476,-0.34334 82.34475,-0.34332 -72.29165,-46.98972 -72.29165,-46.98973 -143.33334,0.012 -143.33333,0.012 -72.00001,46.79697 c -39.6,25.73834 -72.2089,46.98735 -72.46424,47.22004 -0.25533,0.23268 5.59467,8.22935 13,17.77038 7.40534,9.54042 13.46424,17.68152 13.46424,18.09072 0,0.40921 -1.2,0.74401 -2.66666,0.74401 -2.64248,0 -2.66667,0.88889 -2.66667,98 v 98 h 56 56 v -8.66667 -8.66666 h -46.66667 -46.66666 v -36 -36 l 35,0.0419 35,0.0419 27.66667,36.10477 27.66666,36.10478 v 8.52 8.51998 h 6.57607 6.57605 l 54.33176,70.66667 c 29.88246,38.86667 54.77879,70.66667 55.32519,70.66667 0.54639,0 8.4914,-22.95 17.65559,-51 z M 425.6681,546.05203 c -43.74883,-57.13204 -60.94428,-80.14954 -60.87226,-81.48239 0.0451,-0.83469 16.39511,-23.11761 36.33334,-49.51761 l 36.25132,-48 11,-0.38726 c 6.05,-0.213 11,-0.0343 11,0.3973 0,0.4315 -16.21563,22.10264 -36.03472,48.15806 -19.8191,26.05544 -36.1691,47.80376 -36.33334,48.32963 -0.24924,0.79803 55.93466,74.74613 70.78741,93.16893 l 4.56854,5.66667 H 450.27187 438.17534 Z M 216.71383,419.43297 c 0,-30.99081 0.26988,-36.00081 1.84946,-34.33333 1.01722,1.07381 13.10854,16.65239 26.8696,34.61905 13.76108,17.96667 25.6023,33.41667 26.3138,34.33334 1.02579,1.32156 -4.53793,1.66666 -26.86961,1.66666 h -28.16325 z m -92.00001,53.61906 v -89.33334 h 23.33334 23.33333 v -8.66666 -8.66667 h -56 -56.000001 v 8.66667 8.66666 h 23.333334 23.333337 v 89.33334 89.33333 h 9.33333 9.33333 z m 621.33335,80.66666 v -8.66666 h -46.66666 -46.66667 v -36 -36 h 38 38 v -8.66667 -8.66667 h -37.33333 -37.33334 v -36 -36 h 46 46 v -8.66666 -8.66667 h -56 -56 v 98 98 h 56 56 z m 122.66667,0 v -8.66666 h -37.33333 -37.33334 v -89.33334 -89.33333 h -9.33333 -9.33333 v 98 98 h 46.66667 46.66666 z"
           id="path3766"
           inkscape:connector-curvature="0" />
        <path
           style="fill:#5f7986;stroke-width:1.33333337"
           d="M 440.70881,920.96299 C 330.75036,915.33941 223.97791,868.77097 144.17173,791.62933 65.964547,716.03331 18.573574,618.55355 5.8210088,507.05203 3.6456809,488.03213 3.6618607,431.19719 5.8479584,412.38536 21.675395,276.18699 88.920009,161.48867 199.04412,82.853037 260.20605,39.179517 332.37338,11.63394 412.04716,1.5518136 434.74767,-1.3207677 489.89795,-1.7249986 512.04717,0.81885097 619.14692,13.119318 710.98284,56.059274 786.68108,129.23013 c 74.0928,71.61902 121.69155,166.69642 136.08262,271.8219 2.94137,21.48648 4.03822,73.88394 2.04222,97.55898 -6.93472,82.25447 -36.37096,162.9412 -83.42541,228.67467 -92.80179,129.64093 -242.05911,201.78916 -400.6717,193.67731 z m 110.39445,-327.55106 82.27724,-106.97341 0.35379,37.97341 0.35377,37.97343 h 55.97957 55.97954 v -8.66667 -8.66666 h -46.66666 -46.66667 v -36 -36 h 38 38 v -8.66667 -8.66667 H 693.2694 c -19.49446,0 -35.24446,-0.51649 -35,-1.14777 0.24444,-0.63128 12.44444,-16.80308 27.11111,-35.93735 l 26.66666,-34.78957 17,-0.0627 17,-0.0626 v -8.61058 -8.61058 l -9.92021,-0.38942 -9.92023,-0.38942 13.25356,-17.17834 c 7.28946,-9.4481 13.25355,-17.61191 13.25355,-18.14183 0,-0.52991 -32.44609,-22.04965 -72.10244,-47.82165 L 608.50897,235.71869 H 464.92466 321.34036 l -72.31192,47 c -39.77156,25.85 -72.29764,47.3 -72.28019,47.66667 0.0175,0.36667 6.07612,8.46667 13.46371,18 11.65796,15.04405 13.06237,17.3896 10.63359,17.7594 l -2.79839,0.42607 v 97.90726 97.90727 h 56 56 v -8.66667 -8.66666 h -46.66667 -46.66666 v -36.02214 -36.02214 l 34.96978,0.35548 34.96979,0.35546 27.69404,36 27.69404,36 0.003,8.33334 0.003,8.33333 h 6.42404 6.42404 l 49.90929,64.93956 c 67.48274,87.80527 59.94563,78.63841 62.16274,75.60421 1.0223,-1.39908 38.8835,-50.68181 84.13599,-109.5172 z m -148.09328,-77.3599 c -19.35968,-25.48334 -35.95559,-47.54736 -36.87982,-49.03119 -1.52666,-2.45104 1.6898,-7.17771 35.15887,-51.66667 l 36.83926,-48.96881 h 10.6261 c 5.84436,0 10.62611,0.28087 10.62611,0.62416 0,0.34328 -16.51032,22.31936 -36.68961,48.83573 -24.15949,31.74652 -36.28378,48.72304 -35.5013,49.70919 11.03711,13.90977 73.52424,95.59649 73.52424,96.11505 0,0.39372 -5.06349,0.71587 -11.25222,0.71587 h -11.25222 z m -186.29615,-96.6 c 0,-20.98204 0.49506,-35.73283 1.17468,-35 0.64608,0.69666 11.53265,14.76666 24.19238,31.26666 12.65974,16.5 24.78154,32.25 26.93735,35 l 3.91967,5 h -28.11204 -28.11204 z m -92.00001,53.6 v -89.33334 h 23.33334 23.33333 v -8.66666 -8.66667 h -56 -56.000001 v 8.66667 8.66666 h 23.333334 23.333337 v 89.33334 89.33333 h 9.33333 9.33333 z m 744.00002,80.66666 v -8.66666 h -37.33333 -37.33334 v -89.33334 -89.33333 h -9.33333 -9.33333 v 98 98 h 46.66667 46.66666 z"
           id="path3764"
           inkscape:connector-curvature="0" />
        <path
           style="fill:#536873;stroke-width:1.33333337"
           d="m 441.09131,920.91387 c -20.53084,-0.94838 -24.84819,-1.49398 -58.37748,-7.37732 -43.14744,-7.57104 -79.69049,-19.48515 -120,-39.12355 C 72.442114,781.71452 -29.856948,571.49051 14.071769,363.45493 28.776454,293.81716 60.078124,227.94377 105.78998,170.43681 118.81311,154.05331 159.04844,113.81798 175.43195,100.79485 277.21369,19.889295 404.4045,-14.727441 531.90143,3.7767386 667.53301,23.461531 789.14753,104.12417 859.48596,221.05203 c 35.00656,58.19353 55.7315,119.21432 64.07824,188.66666 2.31686,19.27834 2.34987,80.6752 0.0537,100 -15.99268,134.59956 -83.30978,249.32455 -191.71803,326.73495 -83.99386,59.97697 -185.10521,89.34297 -290.80862,84.46023 z m 108.31882,-325.03404 83.97037,-109.17222 0.35379,37.83888 0.35377,37.83887 h 55.97957 55.97954 v -8.66667 -8.66666 h -46 -46 v -36 -36 h 37.33334 37.33333 v -8.6449 -8.64488 l -35.48656,-0.35512 -35.48658,-0.3551 27.18425,-35.33334 27.18422,-35.33333 16.969,-0.37317 16.969,-0.37316 v -8.57075 -8.57075 l -9.84417,-0.38942 -9.84419,-0.38942 13.17752,-17.0111 c 7.24763,-9.35611 13.17751,-17.55586 13.17751,-18.22168 0,-0.66582 -32.37377,-22.26082 -71.94171,-47.9889 L 608.83041,235.71869 H 464.90839 320.98638 l -71.80295,46.68144 c -39.49162,25.67479 -71.94532,47.12479 -72.11935,47.66667 -0.17403,0.54188 5.70979,8.78523 13.07515,18.31856 11.50246,14.88817 13.00478,17.39344 10.64974,17.7594 -2.7381,0.42549 -2.74181,0.55857 -2.74181,98.33333 v 97.90727 h 56 56 v -8.66667 -8.66666 h -46 -46 v -36.02251 -36.02251 l 34.23569,0.35584 34.2357,0.35584 27.74963,36 27.74961,36 0.0147,8.33334 0.0147,8.33333 h 6.36691 6.36689 l 54.63311,71.25503 c 30.0482,39.19026 54.94643,71.29026 55.32939,71.33333 0.38296,0.0431 38.48296,-49.04919 84.66667,-109.09389 z M 401.5191,513.72164 c -25.16904,-33.15604 -36.60076,-49.23055 -35.87318,-50.44244 0.58735,-0.97829 17.2093,-23.17963 36.93764,-49.33628 l 35.86975,-47.55756 h 10.54228 c 8.07388,0 10.31007,0.39024 9.55052,1.66667 -0.54546,0.91666 -17.1281,22.8481 -36.85032,48.73653 l -35.85855,47.06987 3.70979,4.93013 c 2.04037,2.71157 18.48143,24.13013 36.53566,47.5968 18.05422,23.46667 33.26746,43.41667 33.8072,44.33333 0.75305,1.27898 -1.6253,1.66667 -10.2242,1.66667 H 438.46017 Z M 217.5872,437.50788 c -1.17377,-24.47457 -1.10612,-52.46975 0.12667,-52.39616 0.55,0.0328 8.87621,10.38283 18.50268,23 9.62648,12.61717 21.79541,28.49031 27.04208,35.27364 l 9.53937,12.33333 h -27.16869 -27.1687 l -0.87337,-18.21081 z m -92.87338,35.54415 v -89.33334 h 23.33334 23.33333 v -8.66666 -8.66667 H 114.6502 57.919909 l 0.396958,8.33333 0.396956,8.33334 23.666667,0.36409 23.66667,0.36411 v 89.30256 89.30257 h 9.33333 9.33333 z m 745.33336,80.66666 v -8.66666 h -38 -38.00001 v -89.33334 -89.33333 h -9.33333 -9.33333 v 98 98 h 47.33333 47.33334 z"
           id="path3762"
           inkscape:connector-curvature="0" />
        <path
           style="fill:#2c4351;stroke-width:1.33333337"
           d="M 428.71383,920.20124 C 389.70228,916.60859 343.33679,906.45868 309.3805,894.07789 195.19801,852.44583 104.34784,771.11085 51.327445,663.05203 21.976007,603.23199 7.4878917,545.37807 4.0804371,474.38536 1.5023288,420.67169 12.701369,353.16019 33.38651,297.71869 66.697972,208.43541 131.00535,127.92977 211.09287,75.250193 334.2617,-5.7672038 487.75506,-23.341214 625.74232,27.775478 649.60878,36.616694 687.6792,55.361085 708.98564,68.761247 881.0631,176.98516 962.01478,381.21365 910.72519,577.71869 877.42956,705.28377 789.84507,813.28827 671.83516,872.30505 c -47.15288,23.58118 -95.47168,38.39743 -148.47209,45.5268 -14.7496,1.98406 -80.8621,3.63907 -94.64924,2.36939 z M 549.91026,595.56997 634.04717,486.08791 v 38.14873 38.14872 h 56 56 v -8.66667 -8.66666 h -46 -46 v -36 -36 h 37.33334 37.33333 v -8.6449 -8.64488 l -35.39443,-0.35512 -35.39441,-0.3551 27.45884,-35.66667 27.45885,-35.66667 h 16.60224 16.60224 v -8.66666 -8.66667 h -9.9681 -9.96811 l 14.00608,-18.18452 14.00607,-18.18452 -4.3713,-2.91493 c -2.40422,-1.6032 -35.027,-22.82018 -72.49508,-47.14882 L 609.13296,235.71869 H 464.98013 320.8273 l -72.05674,46.82643 c -39.6312,25.75453 -72.05673,47.27428 -72.05673,47.82165 0,0.54738 5.96928,8.72548 13.26508,18.17358 11.058,14.32017 12.83274,17.24924 10.66666,17.60441 -2.5482,0.41784 -2.59841,2.31796 -2.59841,98.33333 v 97.90727 h 56 56 v -8.66667 -8.66666 h -46 -46 v -36 -36 h 33.84172 33.84171 l 28.15829,36.58613 28.15828,36.58615 v 8.08052 8.08053 l 6.33334,0.042 6.33333,0.042 54.66667,71.26909 c 30.06667,39.198 55.05507,71.2791 55.52976,71.29132 0.47471,0.012 38.72471,-49.24469 85,-109.45982 z M 402.42035,514.49384 c -19.96141,-26.32816 -36.46141,-48.49108 -36.66667,-49.25093 -0.20525,-0.75987 16.12682,-23.30775 36.29348,-50.10642 l 36.66667,-48.72484 10.42412,-0.0133 10.42414,-0.0133 -2.63091,3.66666 c -1.447,2.01667 -17.97849,23.76667 -36.73664,48.33334 -18.75815,24.56666 -34.1151,45.06324 -34.12655,45.54794 -0.012,0.4847 15.15519,20.5847 33.70364,44.66667 18.54846,24.08196 35.41967,46.03539 37.49159,48.78539 l 3.76712,5 -11.15825,-0.0107 -11.15826,-0.0107 -36.29348,-47.86937 z M 218.04716,420.76631 c 0,-29.85387 0.26979,-34.66759 1.84947,-33 3.04962,3.21933 51.48386,66.4822 51.48386,67.24617 0,0.38843 -12,0.70621 -26.66666,0.70621 h -26.66667 z m -93.33334,52.28572 v -89.33334 h 23.33334 23.33333 v -8.66666 -8.66667 H 114.71382 58.047156 v 8.66667 8.66666 h 24.000001 24.000003 v 89.33334 89.33333 h 9.33333 9.33333 z m 745.33336,80.66666 v -8.66666 h -38 -38.00001 v -89.33334 -89.33333 h -9.33333 -9.33333 v 98 98 h 47.33333 47.33334 z"
           id="path3760"
           inkscape:connector-curvature="0" />
        <path
           style="fill:#233846;stroke-width:1.33333337"
           d="m 427.48138,919.66307 c -6.91119,-0.66511 -13.01939,-1.67468 -13.57379,-2.2435 -0.55439,-0.56881 -33.07243,-80.53421 -72.26228,-177.70088 L 270.391,563.05203 l 19.82808,-0.36807 19.82808,-0.36805 v -8.60118 -8.60117 l -23.54653,-0.36411 -23.54654,-0.36409 -12.18116,-30 c -6.69965,-16.5 -13.19885,-32.55 -14.44268,-35.66667 l -2.2615,-5.66666 h 25.74933 25.74934 l 28.23988,36.73029 28.23986,36.73029 v 7.93638 7.93637 l 6.33334,0.0783 6.33333,0.0783 54.63995,71.26394 c 30.05197,39.19516 55.25197,71.06092 56,70.81278 0.74803,-0.24804 38.86005,-49.20042 84.69339,-108.78298 l 83.33333,-108.33194 0.3541,37.44083 0.3541,37.44084 h 55.97923 55.97924 v -8.66667 -8.66666 h -46 -46 v -36 -36 h 37.33334 37.33333 v -8.6449 -8.64488 l -35.16135,-0.35512 -35.16136,-0.3551 27.39008,-35.66667 27.39007,-35.66667 h 16.43795 16.43794 v -8.60825 -8.60825 l -9.44998,-0.39175 -9.44999,-0.39175 13.00959,-17.0404 c 7.15526,-9.37222 13.43889,-16.57222 13.9636,-16 0.5247,0.57222 5.52289,12.39111 11.10706,26.2642 l 10.15306,25.2238 v 89.10954 89.10953 h 35.84733 35.84732 l 9.37211,23 c 5.15467,12.65 13.43293,33.16947 18.39617,45.59881 l 9.02406,22.59883 -8.90982,17.42468 c -27.83992,54.44584 -69.13825,105.59537 -117.07525,145.00205 -68.28454,56.13339 -147.78491,90.20946 -237.44246,101.7744 -19.39571,2.50186 -74.84068,3.62255 -92.95859,1.87894 z m 366.60694,-431.61104 0.0412,-57 22.62551,55.94545 c 12.444,30.77001 22.62548,56.42001 22.62548,57 0,0.58 -10.2,1.05455 -22.66667,1.05455 h -22.66667 l 0.0412,-57 z m -569.20757,-38 c -6.88403,-16.22035 -6.93707,-16.55099 -6.54292,-40.7965 l 0.376,-23.12982 25.41866,33.12982 c 13.98028,18.2214 25.86568,33.87983 26.41203,34.7965 0.77856,1.30628 -3.79096,1.66666 -21.13272,1.66666 h -22.12607 z m -35.32903,-87.34902 c -4.30583,-10.80804 -8.70347,-21.75098 -9.77253,-24.31765 -2.5457,-6.11181 -1.34196,-4.82748 12.80889,13.66667 8.90716,11.64101 10.46184,14.33333 8.27676,14.33333 -2.35464,0 -2.73997,0.99652 -3.08739,7.98432 l -0.39696,7.98433 z"
           id="path3758"
           inkscape:connector-curvature="0" />
      </g>
    </g>
  </g>
</svg>
